<?xml version="1.0" standalone="no"?>
<!DOCTYPE svg PUBLIC "-//W3C//DTD SVG 20010904//EN"
 "http://www.w3.org/TR/2001/REC-SVG-20010904/DTD/svg10.dtd">
<svg version="1.0" xmlns="http://www.w3.org/2000/svg"
 width="512.000000pt" height="512.000000pt" viewBox="0 0 512.000000 512.000000"
 preserveAspectRatio="xMidYMid meet">

<g transform="translate(0.000000,512.000000) scale(0.100000,-0.100000)"
fill="#000000" stroke="none">
<path d="M2321 5110 c-497 -48 -990 -251 -1376 -565 -114 -92 -294 -274 -384
-387 -229 -287 -417 -675 -495 -1023 -49 -218 -60 -325 -60 -575 0 -250 11
-357 60 -575 79 -355 272 -749 509 -1040 92 -114 274 -294 387 -384 287 -229
675 -417 1023 -495 218 -49 325 -60 575 -60 250 0 357 11 575 60 261 58 603
204 828 353 389 259 688 599 893 1016 125 255 196 484 241 775 24 161 24 539
0 700 -45 291 -116 520 -241 775 -134 272 -283 480 -498 692 -211 209 -404
346 -673 478 -252 124 -486 197 -765 240 -126 19 -468 27 -599 15z m1719 -783
c19 -9 26 -22 28 -49 3 -33 -59 -148 -563 -1039 -312 -550 -569 -1007 -571
-1014 -3 -7 159 -314 360 -681 214 -391 366 -679 366 -694 0 -15 -6 -35 -14
-46 -14 -18 -31 -19 -298 -22 -182 -2 -296 1 -320 7 -20 6 -49 26 -65 44 -16
19 -186 321 -378 673 -191 351 -357 655 -368 674 l-20 35 578 1025 c317 564
587 1036 599 1049 42 47 62 50 361 50 205 1 287 -3 305 -12z m-2166 -698 c22
-6 51 -23 65 -38 29 -31 384 -647 384 -666 0 -6 -125 -234 -278 -506 -188
-332 -291 -506 -317 -531 l-39 -38 -301 0 c-266 0 -304 2 -320 17 -41 37 -31
60 257 568 151 267 275 487 275 489 0 2 -78 138 -174 303 -95 165 -176 312
-180 328 -9 34 14 72 46 78 52 10 545 6 582 -4z"/>
</g>
</svg>
